<svg width="50" height="50" viewBox="0 0 50 50" fill="none" xmlns="http://www.w3.org/2000/svg">
<path d="M25 0C10.9375 0 0 11.2903 0 25.8065C0 42.7419 14.8438 50 17.1875 50C18.75 50 18.75 49.1936 18.75 48.3871V44.3548C13.2812 45.9677 10.9375 42.7419 10.1562 40.3226C10.1562 40.3226 10.1562 39.5161 8.59375 37.9032C7.8125 37.0968 4.6875 35.4839 7.8125 35.4839C10.1562 35.4839 11.7188 38.7097 11.7188 38.7097C14.0625 41.9355 17.1875 41.129 18.75 40.3226C18.75 38.7097 20.3125 37.0968 20.3125 37.0968C14.0625 36.2903 9.375 33.871 9.375 25C9.375 21.7742 10.1562 19.3548 11.7188 17.7419C11.7188 17.7419 10.1562 14.5161 11.7188 10.4839C11.7188 10.4839 15.625 10.4839 18.75 13.7097C21.0938 12.0968 28.9062 12.0968 31.25 13.7097C34.375 10.4839 38.2812 10.4839 38.2812 10.4839C39.8438 16.129 38.2812 17.7419 38.2812 17.7419C39.8438 19.3548 40.625 21.7742 40.625 25C40.625 33.871 35.1562 36.2903 29.6875 37.0968C30.4688 37.9032 31.25 39.5161 31.25 41.9355V48.3871C31.25 49.1936 31.25 50 32.8125 50C35.1562 50 50 42.7419 50 25.8065C50 11.2903 39.0625 0 25 0Z" fill="white" fill-opacity="0.9"/>
</svg>
